<svg xmlns="http://www.w3.org/2000/svg" xmlns:xlink="http://www.w3.org/1999/xlink" xml:space="preserve" width="141.30867mm" height="158.58066mm" viewBox="0 0 141.30867 158.58066">
  <defs>
    <linearGradient id="d">
      <stop offset=".28716215" stop-color="#fdda68"/>
      <stop offset="1" stop-color="#e09b11"/>
    </linearGradient>
    <linearGradient id="c">
      <stop offset="0" stop-color="#dc761b"/>
      <stop offset="1" stop-color="#dc761b" stop-opacity="0"/>
    </linearGradient>
    <linearGradient id="b">
      <stop offset="0" stop-color="#f1b893"/>
      <stop offset="1" stop-color="#f1b893" stop-opacity="0"/>
    </linearGradient>
    <linearGradient id="a">
      <stop offset=".2771278" stop-color="#f6c09b" stop-opacity="0"/>
      <stop offset="1" stop-color="#f6c09b"/>
      <stop offset="1" stop-color="#f6c09b" stop-opacity="0"/>
    </linearGradient>
    <linearGradient xlink:href="#a" id="h" x1="-75.325165" x2="-64.776329" y1="208.41631" y2="198.32063" gradientUnits="userSpaceOnUse"/>
    <linearGradient xlink:href="#b" id="e" x1="-112.3441" x2="-106.18818" y1="201.32585" y2="210.87872" gradientTransform="matrix(1.0013333 -.24006277 .22450071 .93642189 -45.742931 -13.476766)" gradientUnits="userSpaceOnUse"/>
    <linearGradient xlink:href="#c" id="j" x1="-122.53982" x2="-122.32922" y1="251.32607" y2="246.34187" gradientUnits="userSpaceOnUse"/>
    <filter id="i" width="1.2860544" height="1.2860544" x="-.14302721" y="-.14302721" color-interpolation-filters="sRGB">
      <feGaussianBlur stdDeviation=".89151031"/>
    </filter>
    <filter id="f" width="1.0799698" height="1.0799698" x="-.03998488" y="-.03998488" color-interpolation-filters="sRGB">
      <feGaussianBlur stdDeviation=".24923184"/>
    </filter>
    <radialGradient xlink:href="#d" id="g" cx="-48.167927" cy="174.4204" r="26.67359" fx="-48.167927" fy="174.4204" gradientTransform="matrix(1 0 0 .5803945 0 73.18776)" gradientUnits="userSpaceOnUse"/>
  </defs>
  <g transform="translate(154.97214 -151.01051)">
    <path fill="#fcf6de" d="M-106.84938 199.21697c-15.44318-.41155-9.77982 22.75417 5.69508 24.59239 8.425786 4.99514 16.056206 5.31165 22.003715-4.27131 9.813159-2.73396 18.828662-5.96528 16.43807-16.30863-1.343177-6.41342-6.445727-7.51459-11.907893-6.42133-.278093-5.18092-17.42255-18.59979-20.062211-12.73485-16.284691-5.7833-16.127881 10.31649-12.166761 15.14373z"/>
    <circle cx="-108.04862" cy="206.75789" r="7.4797821" fill="url(#e)" filter="url(#f)" paint-order="markers fill stroke" style="mix-blend-mode:normal" transform="matrix(.94438815 .24210503 -.22641058 1.0098517 40.147798 24.684127)"/>
    <path fill="#97501a" stroke="#000" stroke-linecap="round" stroke-width=".5" d="m-92.519536 289.24273.87853-.43926c-3.903784-5.37838 15.204314-4.46001 17.204537-2.70881 12.956377-7.72472 28.108146-.41399 23.354244 12.153.781695.012 1.856889 3.61291.732107 4.02659l-37.996402.58569z"/>
    <path fill="#97501a" stroke="#000" stroke-linecap="round" stroke-width=".5" d="M-102.16499 284.78997c-2.73343-3.35828-21.43183-4.39868-16.95694 1.24351-4.61706 4.17956-4.7279 7.56391-4.29575 10.85243-1.27599.23981-1.43257 3.41569-.90437 3.73053 11.90643 4.70512 21.02481.53287 35.948699 2.82616.907335-.19114.256926-3.64882-.728922-4.11851.568269-6.67421-2.275037-12.20189-13.062717-14.53412z"/>
    <path stroke="#000" stroke-linecap="round" stroke-width=".5" d="M-108.86048 264.57011c-3.07622 6.32446-4.30212 12.80312-5.4043 19.29208 2.30918 2.25098 5.47308 2.0756 7.60372 1.00545.76131-4.48153 1.62722-9.18028 4.52453-18.09811zm18.600832 3.20487c6.583442 7.93286 4.279831 13.59668 3.330554 19.60629 2.755961.94032 6.605856 1.02051 9.111898-.37704.570524-8.21055-.990462-15.12367-4.273166-20.98878z"/>
    <path fill="#d50b23" stroke="#000" stroke-linecap="round" stroke-width=".5" d="M-102.96147 231.58943c-8.94586 7.76225-13.4339 16.00789-8.51259 25.27381l-1.71571 5.80704c6.02447 4.05701 12.2496 5.60563 18.608913 5.47709 6.454142.19409 12.659491-.45773 18.278972-3.10149l-1.385771-5.01516c5.395898-5.92288 5.861411-11.93244 4.753988-18.18882-10.711445 5.71344-20.65629 3.12814-30.027802-10.25247z"/>
    <path d="M-94.619145 181.91663c13.792138-18.33424-7.452875-25.1004-18.587755-21.36758-6.72141 2.25326-18.70457 18.70691 1.13784 26.55471l-6.4818 5.05089c-7.47847-12.86159-25.54478-4.81668-25.25495 8.65224.29035 13.49305 17.99356 21.90421 26.07761 8.08222 3.96696 11.14504 9.7144 13.58861 15.096 14.4521-14.85968-3.73978-17.29497-26.17897-3.6488-23.60987-7.43417-12.36931 4.43583-20.20588 11.804934-15.45372.09111-4.59178 16.776505 3.78969 19.531796 12.09111l1.00163-.21464c-2.302564-4.24848-7.756619-12.41843-20.676505-14.23746z"/>
    <path stroke="#000" stroke-linecap="round" stroke-width=".5" d="m-92.651137 195.10747-4.618193-.16896c-2.28767-3.52881-1.76271-5.53623-.67584-5.68826 4.190507-.58617 10.152891 7.62892 9.85591 11.15125-1.088843-.0463-2.177687.29143-3.26653.8448l-3.379169-2.98494zm10.081186-2.08382-4.843476-1.01375c-1.806467-2.5451-1.458674-3.73848-.506876-4.16764 1.259491-.56789 7.526557 3.61553 8.560561 8.50424.562721 2.66051-.642524 2.91153-1.914862 2.19646-1.220255-.33186-2.44051-1.68249-3.660765-3.04125z"/>
    <path fill="url(#g)" stroke="#000" stroke-linecap="round" stroke-width=".6" d="M-63.96193 173.25509c-2.485589-1.50224-7.45223.7355-9.238471-1.38577-6.156398-7.31109 10.421074-12.31091 15.903367-4.61923 2.092696-.81457 4.264293-1.07682 6.532917-.65989 1.626976-3.78198 17.974123-10.87175 22.898206-5.27913 4.669194-.0568 8.578676 4.87133 4.09132 6.33495 2.636277 4.09254-1.192039 5.75388-3.101485 6.20297l-9.700392 3.76138c-3.581064 5.79162-7.854367 10.22886-15.44144 8.18264 1.315867 3.49664-1.859309 4.41701-3.629401 3.43144-3.049125-1.59769-6.227132-2.98057-8.776544-5.41111-2.071357-1.79987-.825811-4.19956 1.055824-4.28928-1.218946-1.38516-2.115419-4.11601-.593901-6.26897z"/>
    <path d="m-59.667907 189.97604 2.835955-3.99232c-.03687-2.3166-4.544983-3.40545-6.364099-2.3091-2.985621 4.03588-5.668807 8.22299-8.053687 12.55924l3.210211.45056 7.129852-5.33763-4.144921 1.67686.16896-1.29535c1.427598-1.41934 3.18991-2.28364 5.217729-1.75226z"/>
    <circle cx="-69.511658" cy="204.00557" r="7.4797821" fill="url(#h)" filter="url(#i)" paint-order="markers fill stroke"/>
    <ellipse cx="-197.05818" cy="65.573921" rx="7.8783274" ry="4.561255" transform="rotate(-53.756441)"/>
    <path fill="#1a1a1a" stroke="#000" stroke-linecap="round" stroke-linejoin="round" stroke-width=".4" d="M-103.68976 204.17491c-4.02694-1.17571-7.29464-.52485-6.70201 5.12507.78002-3.5598 2.71381-5.87815 6.70201-5.12507z" paint-order="markers stroke fill"/>
    <path stroke="#000" stroke-linecap="round" stroke-linejoin="round" stroke-width=".3" d="M-106.12894 206.05166c4.75159 17.73881 14.680575 24.01942 23.546661 13.62804-8.943764-1.03605-17.336471-3.73128-23.546661-13.62804z"/>
    <path fill="#cb1323" stroke="#000" stroke-linecap="round" stroke-width=".5" d="M-90.22558 220.76722c-1.324894-3.72829 6.158254-1.00661 6.381279-.26396-3.488084 3.85016-11.441019 6.63403-15.553759-.85785.88377-1.06917 4.08187-3.34786 9.17248 1.12181z"/>
    <path fill="#1a1a1a" stroke="#000" stroke-linecap="round" stroke-width=".4" d="M-92.469207 202.88418c2.221371-1.57684 2.902363-2.15757 6.136984-1.71571-2.627554-1.98328-5.742612.17756-6.136984 1.71571z"/>
    <path fill="none" stroke="#000" stroke-linecap="round" stroke-linejoin="round" stroke-width=".4" d="M-92.733163 182.95549c-1.609576.98335.24912 2.53802 1.055825 3.5634-9.701612-8.42459-25.873992 4.14881-7.258792 18.7409-2.52811-1.97322-6.76529-5.38724-7.68341-5.79771"/>
    <ellipse cx="-.44430447" cy="269.00153" fill="#fff" stroke="#000" stroke-linecap="round" stroke-width=".7" rx="3.2664587" ry="5.6090703" transform="rotate(19.868706)"/>
    <ellipse cx="-18.803965" cy="263.22678" fill="#fff" stroke="#000" stroke-linecap="round" stroke-width=".7" rx="2.810955" ry="5.6090703" transform="rotate(13.00466)"/>
    <path fill="#f3bf4b" stroke="#000" stroke-linecap="round" stroke-width=".5" d="M-121.07608 235.80121c-1.13538-.40251-5.63028-1.08988-6.97755 3.03569-4.28768.90508-4.28027 4.83503-2.44668 5.84484-1.59496 1.15203-2.5485 4.71468.86087 5.6636 6.11669.889 12.23338 1.13908 18.35007 1.31395 1.74393-.38995 3.47641-.71116 5.57298-3.21692.72353-.42054 1.47524-.58738 2.08421-2.0389.78893-.68699 1.46818-1.61161 1.5405-3.85125-.29875-6.14067-4.00038-8.80112-9.60547-9.51485-5.07971-1.23419-7.79276.14309-9.37893 2.76384z"/>
    <path fill="url(#j)" d="M-102.72014 245.23403c-1.7544 1.13046-3.32904 1.38222-4.91132 1.6707-7.48081-.17438-14.96198-.42348-22.44279-1.31-.37437-.085-.70504-.19136-.99667-.31471-1.0578 1.51405-1.2428 4.11417 1.58459 4.90409 6.09359.889 12.18692 1.13875 18.28051 1.31362 1.73735-.38995 3.46362-.7111 5.55228-3.21686.72079-.42054 1.46957-.58712 2.07624-2.03863.31404-.27451.60961-.5891.85716-1.00821z" opacity=".515873"/>
    <path fill="none" stroke="#000" stroke-linecap="round" stroke-width=".5" d="M-130.50031 244.77236c3.38362-.93919 6.94879-.2971 9.87032.71557m-7.30614-6.69481c2.00708-.35733 4.74951-.0259 6.67882.6328"/>
    <path fill="none" stroke="#000" stroke-linecap="round" stroke-width=".5" d="M-120.89484 237.43233c-.87387 3.81005 2.06917 5.05278 3.94187 5.39175"/>
    <path fill="none" stroke="#000" stroke-linecap="round" stroke-width=".5" d="M-121.03077 239.78839c-1.74785 4.9771 2.84633 8.95189 6.11669 9.10707m7.79312-4.57619c1.25757 1.17867 1.60772 2.52232 1.5405 3.94186m-.18124-6.16199c1.6618.96521 2.02127 2.53149 2.12952 4.21372m-.90618-6.47917c1.38746.69245 2.25098 1.8612 2.31075 3.76064m-9.96794-10.69288c2.90228 2.54833 3.67772 5.04833 1.26865 7.47595"/>
    <ellipse cx="-51.338463" cy="173.78929" fill="none" stroke="#000" stroke-linecap="round" stroke-width=".4" rx="3.4043014" ry="1.9034806"/>
    <path fill="none" stroke="#000" stroke-linecap="round" stroke-width=".4" d="M-54.669555 173.42325c2.303689-.7418 4.455662-.57331 6.369339 1.02496m-11.713726 6.58897c-.888186-1.03326-2.040376-1.44121-3.514119-1.49854m7.906766 3.84128c1.48318.35072 2.689795 1.16238 3.587329 2.48917m4.026593-18.52233c1.613201-.25045 2.870185.38965 4.099803 1.09816m2.928433 2.7088c1.59785.53735 2.522995 1.61286 3.148065 2.92843m-.439267-2.92843c4.257897-2.59497 9.019831-4.03785 14.642161-3.51412m-19.986548-.6589c4.495484-2.67917 10.318886-4.03042 15.952517-5.57145"/>
    <path fill="none" stroke="#000" stroke-linecap="round" stroke-width=".5" d="M-104.16005 219.10679c1.16908 2.94776 3.13118 5.2549 5.487058 6.53923m16.769021-22.20634c3.283031-8.32614 18.488356-11.16695 19.547284 1.53743.705272 8.46143-8.096986 13.60491-20.855353 14.84719"/>
    <path d="M-112.19015 256.01018c-11.79799 13.20072-36.88693 16.60608-31.01285 33.53815 4.13388 11.91593 19.52848 10.06706 23.14036 3.50332-2.57707 3.66965-16.08075 8.41076-21.54062-3.59655-4.94772-10.88101 5.69132-14.73272 29.19261-29.96158.2199-1.14314 1.09802-2.73214.2205-3.48334z"/>
    <path fill="none" stroke="#000" stroke-linecap="round" stroke-width=".5" d="M-123.79854 298.10521c7.28345 5.79979 22.25506-.47859 34.773618 1.26341m-27.012718-8.66333c2.9833-2.82701 8.33116-4.91192 14.67952-5.71538m-17.80795.90243c2.30621 1.95838 4.61242 1.94939 6.91863 1.86502m20.738113 1.20324c2.055256 1.96242 5.412287 1.65407 8.199791 1.68453m2.286153 1.32356c1.552307-1.90952 3.28776-3.80389 6.57244-5.87089m-13.671552 14.83503c14.275905 1.85026 25.051671-2.26178 37.034786-2.69148m-36.673812-11.7474c-.942497-.038-1.232375.80433 1.592278 1.11004"/>
    <path fill="none" stroke="#000" stroke-linecap="round" stroke-width=".7" d="M-111.57432 256.82672c1.35418 2.72544 3.4034 3.53949 5.38812 4.53093m28.410128-1.40826c-7.054858 6.31919-16.389221 6.30409-22.960768 3.91863"/>
    <path fill="none" stroke="#000" stroke-linecap="round" stroke-width=".5" d="m-94.001682 265.21505.244914 3.00021"/>
    <path d="m-108.04263 221.69107-14.25364 3.43143c-3.82581 1.07834-3.63985 3.49393-2.77154 6.13698 1.61644 3.03297 3.48795 5.87463 5.80704 8.38061 1.83317.61902 5.55508.37226 5.87303-3.43143l-3.82737-5.87303 13.72573-3.23346c.68357 18.16128 22.452545 22.37451 30.750903 14.58358-1.137505-6.67478-3.792802-12.48226-7.390775-17.75106l4.120182-5.29976-2.901864.68219c-11.253217 15.62989-19.788096 4.08974-29.131696 2.37395z"/>
  </g>
</svg>